<svg xmlns="http://www.w3.org/2000/svg" width="61.111" height="55" viewBox="0 0 61.111 55">
  <g id="Group_344" data-name="Group 344" transform="translate(-5995.539 -1799)">
    <path id="Fill_1" data-name="Fill 1" d="M22.456,0C10.345,0,0,1.871,0,9.349s10.279,9.419,22.456,9.419c12.112,0,22.456-1.871,22.456-9.349S34.634,0,22.456,0" transform="translate(5995.539 1835.232)" fill="#e18749" opacity="0.4"/>
    <path id="Fill_3" data-name="Fill 3" d="M14.859,29.1A14.655,14.655,0,0,0,29.718,14.552,14.655,14.655,0,0,0,14.859,0,14.657,14.657,0,0,0,0,14.552,14.657,14.657,0,0,0,14.859,29.1" transform="translate(6003.136 1799)" fill="#e18749"/>
    <path id="Fill_5" data-name="Fill 5" d="M3.864,12.385A19.457,19.457,0,0,1,.39,23.526a.542.542,0,0,0,.374.84,12.123,12.123,0,0,0,1.71.158,12.361,12.361,0,0,0,12.443-9.015A12.359,12.359,0,0,0,2.827,0a12.708,12.708,0,0,0-2.5.249.452.452,0,0,0-.29.17A.34.34,0,0,0,.094.8a19.6,19.6,0,0,1,3.77,11.589" transform="translate(6034.982 1801.43)" fill="#e18749"/>
    <path id="Fill_7" data-name="Fill 7" d="M19.089,5.466C18.027,3.25,15.465,1.73,11.566.983A56.08,56.08,0,0,0,.116.008.13.13,0,0,0,0,.093.164.164,0,0,0,.1.26C2.244,1.3,10.517,5.806,9.477,15.316a.632.632,0,0,0,.715.709c2.036-.284,7.274-1.388,8.9-4.819a6.437,6.437,0,0,0,0-5.739" transform="translate(6036.886 1833.71)" fill="#e18749" opacity="0.4"/>
  </g>
</svg>
