<svg xmlns="http://www.w3.org/2000/svg" width="18.559" height="14.897" viewBox="0 0 18.559 14.897">
  <g id="Group_1061" data-name="Group 1061" transform="translate(-42 -416)">
    <path id="Path_2862" data-name="Path 2862" d="M17.421,22H1.193A1.19,1.19,0,0,0,0,23.165v2.413H18.559V23.165A1.143,1.143,0,0,0,17.421,22Z" transform="translate(42 394)" fill="#b97f49"/>
    <path id="Path_2863" data-name="Path 2863" d="M0,96.239A1.19,1.19,0,0,0,1.193,97.4H17.421a1.143,1.143,0,0,0,1.137-1.165V88H0Zm13.482-4.993h3.579v2.746H13.482Zm-10.1-.578a1.954,1.954,0,0,1,1.568.786,1.957,1.957,0,1,1,0,2.341,1.957,1.957,0,1,1-1.568-3.128Z" transform="translate(42 333.493)" fill="#b97f49"/>
  </g>
</svg>
