<svg id="Iconly_Bulk_Document" data-name="Iconly/Bulk/Document" xmlns="http://www.w3.org/2000/svg" width="40.5" height="45" viewBox="0 0 40.5 45">
  <g id="Document">
    <path id="Path" d="M29.68,0H10.822C3.983,0,0,4.005,0,10.868V34.11C0,41.085,3.983,45,10.822,45H29.68c6.95,0,10.82-3.915,10.82-10.89V10.868C40.5,4.005,36.63,0,29.68,0" transform="translate(0)" fill="#e5c97a" opacity="0.4"/>
    <path id="Combined_Shape" data-name="Combined Shape" d="M.269,23.174a1.794,1.794,0,0,1,0-1.889,1.767,1.767,0,0,1,1.689-.832H19.6a1.777,1.777,0,0,1,0,3.532H1.958a1.646,1.646,0,0,1-.22.015A1.762,1.762,0,0,1,.269,23.174ZM1.958,13.7a1.757,1.757,0,0,1,0-3.513H19.6a1.757,1.757,0,0,1,0,3.513Zm0-10.172a1.755,1.755,0,1,1,0-3.509V0H8.683a1.766,1.766,0,0,1,0,3.532Z" transform="translate(9.473 10.462)" fill="#c8a133"/>
  </g>
</svg>
