<svg xmlns="http://www.w3.org/2000/svg" width="48" height="43.199" viewBox="0 0 48 43.199">
  <g id="Group_1059" data-name="Group 1059" transform="translate(-40.057 -378)">
    <path id="Fill_1" data-name="Fill 1" d="M17.638,0C8.125,0,0,1.47,0,7.343s8.074,7.4,17.638,7.4c9.513,0,17.638-1.47,17.638-7.343S27.2,0,17.638,0" transform="translate(40.057 406.458)" fill="#9dd3c7" opacity="0.4"/>
    <path id="Fill_3" data-name="Fill 3" d="M11.671,22.859A11.51,11.51,0,0,0,23.342,11.43,11.51,11.51,0,0,0,11.671,0,11.512,11.512,0,0,0,0,11.43a11.512,11.512,0,0,0,11.671,11.43" transform="translate(46.023 378)" fill="#33b89b"/>
    <path id="Fill_5" data-name="Fill 5" d="M3.035,9.728a15.283,15.283,0,0,1-2.729,8.75.425.425,0,0,0,.294.66,9.523,9.523,0,0,0,1.343.124,9.709,9.709,0,0,0,9.774-7.081A9.707,9.707,0,0,0,2.22,0,9.982,9.982,0,0,0,.257.2.355.355,0,0,0,.029.329a.267.267,0,0,0,.045.3,15.392,15.392,0,0,1,2.961,9.1" transform="translate(71.037 379.909)" fill="#33b89b"/>
    <path id="Fill_7" data-name="Fill 7" d="M14.993,4.293C14.16,2.552,12.147,1.359,9.085.772A44.048,44.048,0,0,0,.091.007.1.1,0,0,0,0,.073.129.129,0,0,0,.081.2C1.763,1.018,8.261,4.56,7.443,12.03A.5.5,0,0,0,8,12.586c1.6-.223,5.713-1.09,6.989-3.785a5.056,5.056,0,0,0,0-4.507" transform="translate(72.533 405.263)" fill="#9dd3c7" opacity="0.4"/>
  </g>
</svg>
