<svg id="Group_873" data-name="Group 873" xmlns="http://www.w3.org/2000/svg" width="36.65" height="49.398" viewBox="0 0 36.65 49.398">
  <path id="Path_2849" data-name="Path 2849" d="M97.862,0H66.789A2.916,2.916,0,0,0,64,2.629V34.5L79.776,49.4H97.862a2.916,2.916,0,0,0,2.789-2.629V2.629A2.916,2.916,0,0,0,97.862,0Z" transform="translate(-64 0)" fill="#0ee0b8"/>
  <path id="Path_2850" data-name="Path 2850" d="M97.862,0H66.789A2.916,2.916,0,0,0,64,2.629V34.5L79.776,49.4H97.862a2.916,2.916,0,0,0,2.789-2.629V2.629A2.916,2.916,0,0,0,97.862,0Z" transform="translate(-64 0)" fill="#e3bfa6"/>
  <path id="Path_2851" data-name="Path 2851" d="M102.811,38.244V2.629A2.916,2.916,0,0,0,100.023,0H68.95A2.54,2.54,0,0,0,66.4,2.39" transform="translate(-66.161 0)" fill="#cb9c7c"/>
  <path id="Path_2852" data-name="Path 2852" d="M230.309,38.244V2.629A2.916,2.916,0,0,0,227.52,0H208" transform="translate(-193.659 0)" fill="#cb9c7c"/>
  <path id="Path_2853" data-name="Path 2853" d="M200,352v11.871c0,.159.159.319.159.478l1.912,1.833c.159,0,.319.159.478.159h12.509L200.319,352Z" transform="translate(-186.455 -316.943)" fill="#d9b399"/>
  <path id="Path_2854" data-name="Path 2854" d="M200,351.2v11.951c0,.159.159.319.159.478l1.912,1.833c.159,0,.319.159.478.159h6.374l-7.25-12.031Z" transform="translate(-186.455 -316.223)" fill="#e3bfa6"/>
  <path id="Path_2855" data-name="Path 2855" d="M79.776,359.138h.159V346.629A2.694,2.694,0,0,0,77.385,344L64,344.159Z" transform="translate(-64 -309.74)" fill="#cb9c7c"/>
  <path id="Path_2858" data-name="Path 2858" d="M157.633,125.584l-2.948-2.948a3.5,3.5,0,0,0-2.47-1.036,3.642,3.642,0,0,0-2.47,1.036l-12.987,12.907a1.127,1.127,0,0,0,1.593,1.593l12.987-12.987a1.212,1.212,0,0,1,1.594,0l2.948,2.948a1.023,1.023,0,0,1,.319.8,1.415,1.415,0,0,1-.319.8l-4.382,4.541a.078.078,0,0,0-.08.08l-7.41,7.41a.149.149,0,0,1-.239,0l-1.673-1.673a.149.149,0,0,1,0-.239l4.94-4.94a1.127,1.127,0,0,0-1.593-1.593l-4.94,4.94a2.5,2.5,0,0,0,0,3.506l1.673,1.673a2.5,2.5,0,0,0,3.506,0l3.267-3.267a.078.078,0,0,0,.08-.08l8.6-8.6a3.5,3.5,0,0,0,1.036-2.47A3.842,3.842,0,0,0,157.633,125.584Z" transform="translate(-129.19 -109.489)" fill="#d6b59e"/>
  <path id="Path_2859" data-name="Path 2859" d="M157.633,103.184l-2.948-2.948a3.5,3.5,0,0,0-2.47-1.036,3.642,3.642,0,0,0-2.47,1.036l-12.987,12.987a1.064,1.064,0,0,0,0,1.593,1.129,1.129,0,0,0,1.593,0l12.987-12.987a1.212,1.212,0,0,1,1.594,0l2.948,2.948a1.023,1.023,0,0,1,.319.8,1.415,1.415,0,0,1-.319.8l-4.382,4.541a.078.078,0,0,0-.08.08l-7.41,7.41a.149.149,0,0,1-.239,0l-1.673-1.673a.149.149,0,0,1,0-.239l4.94-4.94a1.127,1.127,0,0,0-1.593-1.593l-4.94,4.86a2.5,2.5,0,0,0,0,3.506l1.673,1.673a2.5,2.5,0,0,0,3.506,0l3.267-3.267a.078.078,0,0,0,.08-.08l8.6-8.6a3.5,3.5,0,0,0,1.036-2.47A3.842,3.842,0,0,0,157.633,103.184Z" transform="translate(-129.19 -89.32)" fill="#fff"/>
</svg>
