<svg xmlns="http://www.w3.org/2000/svg" width="36" height="45" viewBox="0 0 36 45">
  <g id="Group_522" data-name="Group 522" transform="translate(-257.854 -537.222)">
    <path id="Bookmark_2" data-name="Bookmark 2" d="M17.98,11.054l-14.606,7.3a2.293,2.293,0,0,1-3.1-.9A2.453,2.453,0,0,1,0,16.33V0C0,1.619.913,2.618,3.314,3.738Z" transform="translate(257.854 563.567)" fill="#200e32" opacity="0.4"/>
    <path id="Bookmark" d="M33.7,45a2.277,2.277,0,0,1-1.139-.306L17.98,37.4,3.315,30.083C.9,28.956,0,27.943,0,26.345V8.535A7.474,7.474,0,0,1,3.23,1.967,13.827,13.827,0,0,1,11.014,0H24.905a13.922,13.922,0,0,1,7.81,1.967A7.559,7.559,0,0,1,36,8.535V42.675a2.4,2.4,0,0,1-.277,1.1,2.3,2.3,0,0,1-1.385,1.136A2.278,2.278,0,0,1,33.7,45ZM9.505,13.592a1.779,1.779,0,0,0,0,3.558H26.434a1.779,1.779,0,0,0,0-3.558Z" transform="translate(257.854 537.222)" fill="#2c4364"/>
  </g>
</svg>
